<svg version="1.1" id="Слой_2" xmlns="http://www.w3.org/2000/svg" xmlns:xlink="http://www.w3.org/1999/xlink" x="0" y="0" viewBox="0 0 100.9 100.1" xml:space="preserve"><style>.st0{fill:#513d30}.st1{fill:#313330}.st2{fill:#222322}.st4{fill:#506336}.st7{fill:#6d5241}</style><path class="st0" d="M41.4 200.2l14.3 27.9h-8.8c-8.1.4-19.5-.1-18.4-2.1 1-1.7 3.5-2.4 3.5-2.4l-11.3-25.7 20.7 2.3z"/><path class="st1" d="M25.1 61.8c2.1-11.5 2.7-15.6 2.7-17.4 0-.2-.1-.3-.3-.5-.3-.2-.7-.1-.9.1-2.2 3.2-5.8 14.2-5.8 14.2l4.3 3.6z"/><path class="st2" d="M13.1 59.7c4.8-10.1 5.6-11 6.6-12.4.1-.1.2-.2.4-.2.3 0 .6.2.6.5-.1 3.8-2.2 10.2-2.2 10.2l-5.4 1.9z"/><path class="st1" d="M17 56.1l3.7 3c3.1-10.6 3.8-14.2 3.9-16 0-.2-.1-.4-.2-.5-.3-.2-.7-.2-.9.1-2.3 2.8-6.4 12.9-6.5 13.4-.1-.1 0 0 0 0z"/><path class="st0" d="M55.3 129.6s-3.1 7.6-13.9 16.2-29.2-.3-29.2-.3c2 1.3.4 2.1.4 2.1C-4.3 141.2-3 124.1-3 124.1c-.2.4-.7.6-1.2.4-2.1-2.4 2-15.5 2-15.5-2.1-.4-1.1-4.5-1.1-4.5 3-16.2 15.3-47.6 18.8-49s6.7.5 10 5.7c3.1 4.8 1.7 48.5 1.7 48.5l13-12.7 15.1 32.6z"/><path d="M85.9 64.7c-1.5 5.3-3.1 7-3.1 7" fill="none" stroke="#506336" stroke-width="1.03" stroke-miterlimit="10"/><path class="st4" d="M86 65.1c-9.2-4.1-2.4-15.7-2.4-15.7 7.5 8.8 2.4 15.7 2.4 15.7z"/><path class="st4" d="M92.2 52.6c-8.1 5-7 12.3-6 12.1 7.2-1.3 6-12.1 6-12.1z"/><defs><path id="SVGID_1_" d="M86 65.1c-9.2-4.1-2.4-15.7-2.4-15.7 7.5 8.8 2.4 15.7 2.4 15.7z"/></defs><clipPath id="SVGID_2_"><use xlink:href="#SVGID_1_" overflow="visible"/></clipPath><g clip-path="url(#SVGID_2_)"><path d="M85.9 64.7c-1.8-5.1-2.5-10.4-2.2-15.8" fill="none" stroke="#364222" stroke-width=".72" stroke-linecap="round" stroke-miterlimit="10"/></g><path class="st7" d="M27.2 53c-.1 1.2-1.1.3-1.1.3-1.7-2.9-.7-16.3-.7-16.3l-.8-.4c-1.7-3.5 3.8-11.1 3.8-11.1s-1.2.6-.9-1.5 7.1-5.8 7.1-5.8-4.5-.3-2.4-2S43 14.8 43 14.8 39.1 12 41.2 11s8.2 3.6 8.2 3.6 4.2-8.6 6.5-5.9c0 0 1.3 2.1-1.6 4.7 0 0 10.1-2.7 11.6 1.2 0 0-.6.9-3.1.8 0 0 8.3 3.9 8.5 7 0 .6-.4 1.2-1 1.3 0 0 6.5 9.7 4.8 14.3 0 0-.3.3-1.1 0 0 0 1.8 18.1 6.8 27.4s12 25 14.3 29.2c0 0 3 5.5 3.5 8 0 .2 0 .4-.2.6-.3.3-.7.3-1 .1l-1.8-1.5s11.2 24.2 9.2 49.8c0 0-.7 16-2.3 16.9s-1.2-2.6-1.2-2.6-8.8 39.7-23.8 61.8c-.2.3-.5.5-.9.6-3.2.5-18.6 2.9-27.9.7-.1 0-.2-.1-.3-.1-.3-.2-.3-.7-.1-.9.9-1.1 2.2-1.9 3.6-2.2L41.7 204S5 199.6-4 174.9s15-63.4 15-63.4 5.9-11.6 11-23c4.9-11.2 6.7-23.4 5.2-35.5z"/><path d="M11 111.4s5.9-11.6 11-23c1-2.3 2.2-4.3 3-6.6.8-2.2 2.1-4.2 3.8-5.8 2.9-2.7 7-3.9 10.9-3 4 .7 7.4 3.5 8.7 7.4 1.2 4.2 1.5 8.5 1.1 12.8-.9 12.6-2 21.8-2.7 26.4-.4 2.8-.7 5.6-.8 8.4-.4 8.8-.9 27 1.9 37.1 3.7 13.6 5.8 30.6-6.1 38.7 0 0-36.6-4.4-45.7-29.1S11 111.4 11 111.4zm21.2-74.7c3.7-1.5 3-5.4 1.5-6.4-1.3-.8-3.4-.6-4.2-.5h-.1c-.1-.1-.1-.2-.1-.2 3.9-6.3 12.9-5.7 12.9-5.7 13 .1 15.6 5.2 16.6 7.1v.3c-.1.1-.2.2-.4.1-1.6-.8-5.7-2.7-8.7-1.1-3.8 2-3 6.4 1 7.7 2.7.7 5.4.9 8.2.6h.1c.3 0 .5.3.4.6-.4 2.2-1.8 9.4-4 10.5-.5-.3-.9-.9-.8-1.5 0 0-5.6 10.1-11.2 11.3-.7.2-.6-1.4-.6-1.4s-2.7 4-5.1 4.2c-1.3-1.4-2.3-3.1-2.9-5 0 0-.6 1.1-1 1.1s-5.2-6.7-4.1-13c0 0-.6 1.2-1.2 1.2s-1.5-6.9-.5-9.4c0-.1.2-.2.3-.1.4.2 1.7.5 3.9-.4z" fill="#8c6f60"/><path class="st1" d="M37.5 37.9l2.4 1.8c.2.1.5.1.7 0l2.5-1.5c1-.5 1.6-1.6 1.6-2.7-.1-1.1-1-2-2.1-2l-2-.1-2-.1c-1.1-.1-2.1.7-2.3 1.8-.2 1 .3 2.2 1.2 2.8zm.3 24.6c1.5-11.6 1.9-15.7 1.7-17.5 0-.2-.1-.3-.3-.4-.3-.2-.7-.1-.9.2-2.1 3.3-5.1 14.5-5.1 14.5l4.6 3.2z"/><path class="st1" d="M40.8 67.8c1.4-11.1 1.3-12.3 1.1-14 0-.2-.1-.3-.3-.4-.3-.2-.6-.1-.8.2-2 3.2-3.7 9.7-3.7 9.7l3.7 4.5zm-11.6-9.5l4.2 2.3c1.2-10.9 1.3-14.7 1.1-16.4 0-.2-.1-.4-.3-.5-.3-.2-.7-.1-.8.2-1.9 3.3-4.2 13.9-4.2 14.4z"/><path class="st7" d="M69.7 131.3s-3.1 7.6-13.9 16.2-29.2-.3-29.2-.3c2 1.3.4 2.1.4 2.1-17-6.4-15.6-23.5-15.6-23.5-.2.4-.7.6-1.2.4-2.1-2.4 2-15.5 2-15.5-2.1-.4-1.1-4.5-1.1-4.5 3-16.2 15.3-47.6 18.8-48.9s6.7.5 10 5.7c3.1 4.8 1.7 47.4 1.7 47.4l12.9-11.7 15.2 32.6z"/><circle transform="matrix(.03839 -.9993 .9993 .03839 -4.34 60.732)" class="st2" cx="29.4" cy="32.6" r=".8"/><circle transform="rotate(-87.709 49.179 33.607)" class="st2" cx="49.2" cy="33.6" r=".8"/><circle transform="matrix(.03839 -.9993 .9993 .03839 -2.236 83.137)" class="st1" cx="42.1" cy="42.7" r=".7"/><path d="M54.6 98.7l-12.9 11.7m-1 5.2v-10m28 25.7c-8.7 19.4-23.7 20-23.7 20" fill="none" stroke="#313330" stroke-width=".78" stroke-linecap="round" stroke-miterlimit="10"/></svg>