<svg version="1.2" baseProfile="tiny" xmlns="http://www.w3.org/2000/svg" viewBox="0 0 227.4 77"><path fill-rule="evenodd" fill="#F5F5F5" d="M.5.5h76v76H.5z"/><g fill-rule="evenodd"><path fill="#061D96" d="M15.7 14.1c26.3 0 47.6 21.3 47.6 47.6v.5h-15v-.5c0-18-14.6-32.7-32.6-32.7V14.1z"/><path fill="#00D0FF" d="M15.7 33.4C31.3 33.4 44 46.1 44 61.7v.5H29v-.5c0-7.4-6-13.4-13.4-13.4l.1-14.9z"/><path fill="#FFF" d="M15.7 40.6c11.7 0 21.1 9.5 21.1 21.1v.5h-.5v-.5c0-11.4-9.2-20.6-20.6-20.6v-.5zm0-19.2c22.3 0 40.4 18.1 40.4 40.4v.5h-.5v-.5c0-22-17.9-39.9-39.9-39.9v-.5z"/></g><path fill-rule="evenodd" fill="#061D96" d="M41.5 45.3l-24 16.9h-2.8s.4-.9 1.2-2.6l25.6-14.3z"/><path fill="#FFF" d="M108.8 62.3h-4.5V50L100 62.3h-3.4L92.2 50v12.3h-4.5V42.4H93l5.3 13.8 5.3-13.8h5.2v19.9zm8-16.2v4.5h7.5v3.6h-7.5v4.4h7.5v3.7h-12.1V42.4h12.1v3.7h-7.5zm13.6.3h-4.5v-4h13.6v4H135v15.9h-4.6V46.4zm18.7 6.7c.5 0 .9-.1 1.3-.3.4-.2.7-.4 1-.8.3-.3.5-.7.6-1.1.2-.4.2-.9.2-1.3 0-.5-.1-.9-.2-1.3-.2-.4-.4-.8-.6-1.1-.3-.3-.6-.6-1-.8s-.8-.3-1.3-.3h-3.2V53l3.2.1zm-7.7-10.7h8.4c1.1 0 2.1.2 3 .6s1.7.9 2.3 1.6 1.1 1.4 1.5 2.3c.3.9.5 1.8.5 2.8 0 1.4-.3 2.7-1 3.8s-1.7 2-2.9 2.6l4 6.3h-5.3l-3.5-5.5h-2.2v5.5h-4.6v-20h-.2zm18.1 0h4.7v19.9h-4.7V42.4zM187 55.2c-.2 1.1-.6 2.1-1.1 3s-1.2 1.7-2.1 2.4c-.9.7-1.8 1.2-3 1.6-1.1.4-2.4.6-3.8.6-1.7 0-3.2-.3-4.5-.9-1.3-.6-2.4-1.3-3.4-2.3-.9-1-1.6-2.1-2.1-3.3-.5-1.3-.7-2.6-.7-4s.2-2.7.7-3.9c.5-1.3 1.2-2.4 2.1-3.3.9-1 2-1.7 3.3-2.3 1.3-.6 2.7-.9 4.4-.9 1.5 0 2.9.2 4.1.7 1.2.4 2.2 1 3.1 1.8.8.7 1.5 1.6 2 2.6s.8 2.1 1 3.2h-4.8c-.1-.6-.3-1.1-.6-1.6s-.6-.9-1.1-1.3c-.4-.4-.9-.7-1.5-.9s-1.2-.3-1.9-.3c-1 0-1.8.2-2.6.5-.7.4-1.4.8-1.9 1.4-.5.6-.9 1.2-1.2 2s-.4 1.5-.4 2.4.1 1.7.4 2.5c.3.8.7 1.4 1.2 2s1.2 1 2 1.4c.8.3 1.7.5 2.7.5.6 0 1.1-.1 1.6-.3s1-.4 1.4-.7.8-.7 1.1-1.1.5-.9.7-1.4h4.9v-.1zm6.1.5c0 1.1.3 1.9.9 2.5.6.6 1.4.9 2.3.9.7 0 1.4-.2 1.9-.6.5-.4.8-1 .8-1.7 0-.4-.1-.7-.2-1-.2-.3-.4-.5-.7-.7s-.6-.4-1-.6c-.4-.2-.8-.3-1.2-.5-.9-.3-1.8-.7-2.6-1s-1.5-.8-2.1-1.2c-.6-.5-1.1-1.1-1.4-1.7-.4-.7-.5-1.5-.5-2.5 0-.9.2-1.7.6-2.4.4-.7.9-1.3 1.5-1.8s1.4-.8 2.2-1.1 1.7-.4 2.6-.4c1.2 0 2.2.2 3.1.5.9.3 1.6.8 2.2 1.4.6.6 1 1.3 1.3 2 .3.8.4 1.6.4 2.4h-4.7c0-.9-.2-1.6-.6-2.1-.4-.5-1-.8-1.8-.8-.7 0-1.2.2-1.7.5s-.7.9-.7 1.5c0 .7.3 1.2.8 1.6.5.4 1.2.7 2.1 1 .8.3 1.6.6 2.5.9.8.3 1.6.7 2.2 1.2.7.5 1.2 1.1 1.6 1.8.4.7.6 1.5.6 2.5s-.2 1.9-.6 2.7c-.4.8-.9 1.5-1.5 2-.7.5-1.4.9-2.4 1.2-.9.3-1.9.4-3 .4s-2.1-.2-3-.5-1.7-.8-2.4-1.4c-.7-.6-1.2-1.3-1.6-2.2-.4-.9-.6-1.9-.6-3h4.7v.2zM96.1 14c1.1 0 2.1.2 3 .6s1.7.9 2.3 1.6c.6.7 1.1 1.4 1.5 2.3.3.9.5 1.8.5 2.8 0 1.4-.3 2.7-1 3.8s-1.7 2-2.9 2.6l4 6.3h-5.3l-3.7-5.6h-2.2v5.5h-4.6V14h8.4zm-.6 3.8h-3.2v6.9h3.2c.5 0 .9-.1 1.3-.3s.7-.4 1-.8c.3-.3.5-.7.6-1.1.2-.4.2-.9.2-1.3 0-.5-.1-.9-.2-1.3-.2-.4-.4-.8-.6-1.1-.3-.3-.6-.6-1-.8-.4-.1-.8-.2-1.3-.2zm15.9-.1v4.5h7.6v3.6h-7.6v4.4h7.6v3.7h-12.2V14H119v3.7zm28.7 13.8c0 .1-.1.1-.3.3-.4.4-.9.7-1.3 1-1.7 1.1-3.7 1.8-5.9 1.8-2 0-3.8-.5-5.4-1.4-.4-.2-.7-.4-1-.7-.5-.4-.9-.8-1.3-1.2-.9-1-1.6-2.1-2.1-3.3-.5-1.3-.7-2.6-.7-3.9s.2-2.7.7-3.9 1.2-2.4 2.1-3.3c.9-1 2-1.7 3.3-2.3s2.8-.9 4.4-.9 3.1.3 4.4.9 2.4 1.3 3.3 2.3 1.6 2.1 2.1 3.3.7 2.6.7 3.9c0 1-.1 2-.4 2.9-.3.9-.6 1.8-1.1 2.6-.4.6-.9 1.3-1.5 1.9zm-7.5-1.2c.9 0 1.7-.2 2.4-.5s1.3-.8 1.8-1.4c.5-.6.9-1.3 1.2-2 .3-.8.4-1.5.4-2.4s-.1-1.6-.4-2.4-.6-1.4-1.2-2-1.1-1.1-1.8-1.4c-.7-.4-1.5-.5-2.4-.5s-1.7.2-2.4.5c-.7.4-1.3.8-1.8 1.4s-.9 1.3-1.2 2c-.3.8-.4 1.5-.4 2.4s.1 1.6.4 2.4c.3.8.6 1.4 1.2 2 .5.6 1.1 1.1 1.8 1.4s1.5.5 2.4.5z"/><path fill-rule="evenodd" fill="#FFF" d="M132 30.3h11.4v4.2H132z"/><path fill="#FFF" d="M146.2 14h4.6v13.1c0 .5.1.9.2 1.3.2.4.4.8.6 1.1.3.3.6.5 1 .7s.8.3 1.3.3.9-.1 1.3-.3c.4-.2.7-.4 1-.7s.5-.7.6-1.1c.2-.4.2-.8.2-1.3V14h4.6v13.1c0 1-.2 2-.5 2.9-.4.9-.9 1.7-1.5 2.3-.7.7-1.5 1.2-2.4 1.5-1 .4-2 .6-3.2.6s-2.3-.2-3.2-.6-1.8-.9-2.4-1.5c-.7-.7-1.2-1.4-1.5-2.3-.4-.9-.5-1.8-.5-2.9V14h-.2zm24 3.7v4.5h7.6v3.6h-7.6v4.4h7.6v3.7h-12.2V14h12.2v3.7zm15.5 9.6c0 1.1.3 1.9.9 2.5.6.6 1.4.9 2.3.9.7 0 1.4-.2 1.9-.6s.8-1 .8-1.7c0-.4-.1-.7-.2-1-.2-.3-.4-.5-.7-.7s-.6-.4-1-.6c-.4-.2-.8-.3-1.2-.5-.9-.3-1.8-.7-2.6-1s-1.5-.8-2.1-1.2c-.6-.5-1.1-1.1-1.4-1.7-.4-.7-.5-1.5-.5-2.5 0-.9.2-1.7.6-2.4.4-.7.9-1.3 1.5-1.8s1.4-.8 2.2-1.1 1.7-.4 2.6-.4c1.2 0 2.2.2 3.1.5.9.3 1.6.8 2.2 1.4.6.6 1 1.3 1.3 2s.4 1.6.4 2.4h-4.6c0-.9-.2-1.6-.6-2.1-.4-.5-1-.8-1.8-.8-.7 0-1.2.2-1.7.5s-.7.9-.7 1.5c0 .7.3 1.2.8 1.6s1.2.7 2.1 1c.8.3 1.6.6 2.5.9.8.3 1.6.7 2.2 1.2.7.5 1.2 1.1 1.6 1.8.4.7.6 1.5.6 2.5s-.2 1.9-.6 2.7c-.4.8-.9 1.5-1.5 2-.7.5-1.4.9-2.4 1.2-.9.3-1.9.4-3 .4s-2.1-.2-3-.5-1.7-.8-2.4-1.4-1.2-1.3-1.6-2.2c-.4-.9-.6-1.9-.6-3h4.6v.2z"/><path fill-rule="evenodd" fill="#061D96" d="M206.7 56.8h6v6h-6z"/><path fill="#FFF" d="M202.7 18h-4.5v-4h13.6v4h-4.5v15.9h-4.6z"/></svg>